<svg width="98" height="94" viewBox="0 0 98 94" fill="none" xmlns="http://www.w3.org/2000/svg">
<path d="M39.924 31.8158C35.5265 31.8158 31.9603 35.3453 31.9603 39.6999C31.9603 43.215 33.354 51.5578 47.0722 59.9913C47.3179 60.1408 47.6 60.2199 47.8877 60.2199C48.1753 60.2199 48.4574 60.1408 48.7031 59.9913C62.4214 51.5578 63.815 43.215 63.815 39.6999C63.815 35.3453 60.2489 31.8158 55.8513 31.8158C51.4538 31.8158 47.8877 36.594 47.8877 36.594C47.8877 36.594 44.3215 31.8158 39.924 31.8158Z" stroke="white" stroke-width="2.33083" stroke-linecap="round" stroke-linejoin="round"/>
<g clip-path="url(#clip0_2_2371)">
<path d="M43.3133 38.2256C41.2856 38.2256 39.6422 40.1431 39.6422 42.5085C39.6422 44.5337 40.8475 46.231 42.4665 46.6764L41.8583 56.5834C41.847 56.7405 41.8683 56.8984 41.9211 57.0469C41.9739 57.1954 42.0569 57.3313 42.1649 57.4461C42.2729 57.5609 42.4035 57.652 42.5485 57.7137C42.6935 57.7754 42.8498 57.8064 43.0073 57.8046H43.6192C44.2922 57.8046 44.8086 57.2552 44.7682 56.5834L44.1601 46.6764C45.779 46.2297 46.9843 44.5337 46.9843 42.5085C46.9843 40.1431 45.3409 38.2256 43.3133 38.2256ZM55.6517 38.2256L54.6324 44.344H53.8676L53.3573 38.2256H52.847L52.3367 44.344H51.5719L50.5526 38.2256H50.0423V46.1796C50.0423 46.3418 50.1068 46.4975 50.2215 46.6122C50.3363 46.727 50.4919 46.7914 50.6542 46.7914H52.2474L51.6466 56.5834C51.6352 56.7405 51.6566 56.8984 51.7094 57.0469C51.7621 57.1954 51.8451 57.3313 51.9531 57.4461C52.0611 57.5609 52.1918 57.652 52.3368 57.7137C52.4818 57.7754 52.638 57.8064 52.7956 57.8046H53.4075C54.0805 57.8046 54.5969 57.2552 54.5565 56.5834L53.9557 46.7914H55.5489C55.7112 46.7914 55.8668 46.727 55.9815 46.6122C56.0963 46.4975 56.1607 46.3418 56.1607 46.1796V38.2256H55.6505H55.6517Z" fill="white"/>
</g>
<path d="M51.0837 29.8346C43.4236 29.8346 38.7861 24.7419 38.5664 24.4952C38.4085 24.3177 38.3295 24.0834 38.3477 23.8469L39.0416 14.8485C37.7738 14.3068 36.439 13.4452 35.7592 12.1013C35.0166 10.6335 35.1772 8.9186 36.2371 7.00322C37.4098 4.88405 39.7155 3.61453 41.8442 3.92173C42.6246 4.03316 43.3155 4.34157 43.8931 4.81995C44.2783 3.71477 45.0029 2.33821 46.3548 1.33202C48.1014 0.0320423 50.4218 -0.318791 53.2548 0.290003C55.8401 0.845638 57.9978 2.85581 58.7514 5.41095C59.0418 6.39542 59.0974 7.38607 58.9335 8.31711C60.5593 8.32345 62.0667 8.87665 63.196 9.90744C64.2027 10.8264 65.3555 12.5362 65.1299 15.4645C64.9743 17.4896 64.2131 18.991 62.8679 19.9265C61.7778 20.6845 60.4844 20.9275 59.3541 20.9558L55.1004 29.0523C54.9768 29.2875 54.753 29.4536 54.4918 29.5038C53.2987 29.7339 52.1605 29.8346 51.0834 29.8346L51.0837 29.8346ZM40.1199 23.5912C41.2702 24.7359 46.2352 29.1154 53.752 27.8618L57.4513 20.8201C56.9469 20.7377 56.6192 20.646 56.5753 20.6334C56.1111 20.5005 55.8427 20.0168 55.9755 19.553C56.1079 19.0893 56.5921 18.8184 57.0559 18.9532C57.0839 18.961 60.0367 19.7724 61.8747 18.4888C62.7649 17.8671 63.2734 16.8048 63.387 15.3315C63.5224 13.5695 63.0486 12.1408 62.0173 11.1987C61.0758 10.3392 59.7387 9.94576 58.309 10.0969C58.0513 10.5653 57.7261 11.0007 57.3355 11.3913C57.0137 11.7129 56.498 11.7346 56.151 11.4386C55.8043 11.1433 55.7424 10.6311 56.0091 10.2618L56.8913 9.0398C57.3328 8.11213 57.404 7.02305 57.0741 5.90514C56.4987 3.95518 54.8554 2.42183 52.8867 1.9986C50.5686 1.5005 48.7222 1.74772 47.3974 2.73391C45.716 3.98514 45.3097 6.07772 45.2272 6.66217L45.2331 6.68094C45.3806 7.03057 45.5013 7.40945 45.592 7.8144C45.6944 8.27056 45.4196 8.72621 44.9683 8.84886C44.5155 8.97149 44.0494 8.7172 43.9067 8.27177L43.5954 7.29778C43.1763 6.35326 42.4863 5.77836 41.5954 5.65084C40.1919 5.44824 38.5807 6.37398 37.765 7.84853C37.0033 9.22509 36.8524 10.3893 37.3161 11.3084C37.8747 12.4153 39.2749 13.1253 40.5056 13.5349L42.3845 13.9815C42.8365 14.0893 43.1254 14.5316 43.0415 14.989C42.9576 15.4461 42.5327 15.7563 42.07 15.6982C42.0068 15.6902 41.4814 15.6185 40.7488 15.4271L40.1199 23.5912Z" fill="white"/>
<path d="M52.4813 26.7344C44.8161 26.7344 39.7206 21.6462 39.4803 21.4012C39.2096 21.1256 39.214 20.6829 39.4893 20.4128C39.765 20.1419 40.2075 20.1465 40.4782 20.4215C40.5701 20.5137 46.7827 26.6674 55.4346 25.0629C55.8152 24.9929 56.1787 25.244 56.2495 25.6232C56.3197 26.0028 56.0688 26.3678 55.6892 26.438C54.5779 26.644 53.5057 26.7344 52.4812 26.7344L52.4813 26.7344Z" fill="white"/>
<path d="M42.7757 23.5375C42.7481 23.5375 42.7201 23.5358 42.6918 23.5321C42.3083 23.4863 42.035 23.1386 42.0808 22.7551L42.6347 18.125C42.6806 17.7415 43.0275 17.4674 43.412 17.514C43.7955 17.5598 44.0688 17.9075 44.023 18.291L43.4691 22.9212C43.4264 23.2766 43.1246 23.5375 42.7757 23.5375L42.7757 23.5375Z" fill="white"/>
<path d="M52.2116 26.217C52.1236 26.217 52.0341 26.2002 51.9478 26.1648C51.5906 26.019 51.4187 25.6109 51.5647 25.2537L53.3285 20.9329C53.4743 20.5757 53.8829 20.4031 54.2396 20.5499C54.5968 20.6957 54.7687 21.1038 54.6226 21.461L52.8589 25.7818C52.7485 26.0527 52.4873 26.217 52.2116 26.217L52.2116 26.217Z" fill="white"/>
<path d="M46.8932 25.4574C46.8196 25.4574 46.744 25.4455 46.6699 25.4206C46.3042 25.2972 46.1074 24.9008 46.2305 24.5349L47.1027 21.9463C47.226 21.5804 47.622 21.3839 47.9884 21.507C48.3541 21.6304 48.5509 22.0268 48.4277 22.3927L47.5556 24.9813C47.4574 25.2731 47.185 25.4574 46.8932 25.4574L46.8932 25.4574Z" fill="white"/>
<path d="M47.1817 7.06559C47.1492 7.06559 47.1163 7.06315 47.0834 7.05852C46.7011 7.00464 46.4351 6.65088 46.4885 6.26885C46.6755 4.94228 47.8563 2.48008 51.0043 2.64854C51.3898 2.66951 51.6853 2.99865 51.6646 3.38435C51.6438 3.76981 51.3237 4.06529 50.9288 4.04457C48.2735 3.9017 47.888 6.35904 47.8729 6.46364C47.8241 6.81302 47.5245 7.0656 47.1817 7.0656L47.1817 7.06559Z" fill="white"/>
<path d="M61.7648 14.7994C61.4023 14.7994 61.0958 14.5198 61.0685 14.1524C60.9427 12.474 59.474 12.2356 59.3066 12.2139C58.926 12.1646 58.6534 11.8167 58.6997 11.4359C58.7465 11.0548 59.0913 10.7827 59.4697 10.8254C60.4295 10.9343 62.2901 11.7484 62.4621 14.048C62.4912 14.4328 62.2025 14.7685 61.8173 14.7975C61.8002 14.7987 61.7824 14.7995 61.7649 14.7995L61.7648 14.7994Z" fill="white"/>
<path fill-rule="evenodd" clip-rule="evenodd" d="M53.4911 3.70769C53.4911 4.08097 53.1883 4.38352 52.815 4.38352C52.4417 4.38352 52.1392 4.08095 52.1392 3.70769C52.1392 3.33418 52.4417 3.03162 52.815 3.03162C53.1882 3.03162 53.4911 3.33418 53.4911 3.70769Z" fill="white"/>
<path d="M5.56531 87.0061H2.09411V70.3671H11.6314V73.2578H5.56531V77.5485H11.2103V80.4279H5.56531V87.0061Z" fill="white"/>
<path d="M24.6997 68.9859C20.4118 68.9859 16.8193 71.9964 15.9088 76.0132C15.9076 76.0181 15.9039 76.0217 15.9027 76.0266C15.9009 76.0339 15.9009 76.0412 15.8997 76.0483C15.7592 76.6791 15.6793 77.3329 15.6793 78.0061C15.6793 82.98 19.7264 87.0264 24.6996 87.0264C29.6728 87.0264 33.7199 82.98 33.7199 78.0061C33.7199 73.0322 29.6735 68.9858 24.6996 68.9858L24.6997 68.9859ZM29.2093 74.3022C29.2093 74.0013 29.4532 73.7573 29.7542 73.7573C30.0551 73.7573 30.299 74.0013 30.299 74.3022V75.3531C30.299 75.654 30.0551 75.898 29.7542 75.898C29.4532 75.898 29.2093 75.654 29.2093 75.3531V74.3022ZM25.294 71.5513C25.5071 71.3382 25.8522 71.3382 26.0646 71.5513L26.8087 72.2953C27.0218 72.5085 27.0218 72.8536 26.8087 73.066C26.7022 73.1725 26.5629 73.2259 26.423 73.2259C26.2832 73.2259 26.144 73.1726 26.0374 73.066L25.2933 72.322C25.0816 72.1095 25.0816 71.7639 25.294 71.5513H25.294ZM24.6996 75.3725C26.1513 75.3725 27.333 76.5536 27.333 78.006C27.333 79.4583 26.1519 80.6394 24.6996 80.6394C23.2472 80.6394 22.0661 79.4583 22.0661 78.006C22.0661 76.5536 23.2478 75.3725 24.6996 75.3725ZM21.1544 72.6671L21.8984 71.923C22.1115 71.7099 22.4567 71.7099 22.6691 71.923C22.8815 72.1361 22.8822 72.4813 22.6691 72.6937L21.925 73.4377C21.8186 73.5442 21.6792 73.5976 21.5394 73.5976C21.3995 73.5976 21.2603 73.5443 21.1537 73.4377C20.9413 73.2251 20.9413 72.8795 21.1544 72.6671H21.1544ZM18.8605 74.8882H19.9121C20.213 74.8882 20.457 75.1321 20.457 75.4331C20.457 75.734 20.213 75.9779 19.9121 75.9779H18.8605C18.5596 75.9779 18.3157 75.734 18.3157 75.4331C18.3157 75.1321 18.5597 74.8882 18.8605 74.8882ZM24.6996 85.9367C20.4529 85.9367 16.9859 82.5792 16.7884 78.3808C16.838 78.4164 16.8841 78.4559 16.9373 78.4879C17.312 78.7132 17.7322 78.827 18.1559 78.827C18.5858 78.827 19.0198 78.7101 19.4145 78.4735C19.8401 78.2191 20.3698 78.2191 20.7954 78.4735L21.0303 78.6139C21.3217 80.378 22.8532 81.7292 24.6996 81.7292C26.5376 81.7292 28.0649 80.3895 28.3652 78.6363C29.068 78.9251 29.872 78.8731 30.538 78.4747C30.5428 78.4717 30.5482 78.4686 30.5531 78.465C30.9774 78.2192 31.5 78.2211 31.9225 78.4735L32.5806 78.8682C32.1495 82.8371 28.7812 85.9367 24.6995 85.9367L24.6996 85.9367Z" fill="white"/>
<path d="M45.4194 68.9859C41.1315 68.9859 37.539 71.9964 36.6285 76.0132C36.6273 76.0181 36.6236 76.0217 36.6224 76.0266C36.6207 76.0339 36.6207 76.0412 36.6194 76.0483C36.4789 76.6791 36.399 77.3329 36.399 78.0061C36.399 82.98 40.4461 87.0264 45.4193 87.0264C50.3925 87.0264 54.4396 82.98 54.4396 78.0061C54.4396 73.0322 50.3932 68.9858 45.4193 68.9858L45.4194 68.9859ZM49.929 74.3022C49.929 74.0013 50.1729 73.7573 50.4739 73.7573C50.7748 73.7573 51.0187 74.0013 51.0187 74.3022V75.3531C51.0187 75.654 50.7748 75.898 50.4739 75.898C50.1729 75.898 49.929 75.654 49.929 75.3531V74.3022ZM46.0137 71.5513C46.2268 71.3382 46.572 71.3382 46.7844 71.5513L47.5284 72.2953C47.7415 72.5085 47.7415 72.8536 47.5284 73.066C47.4219 73.1725 47.2826 73.2259 47.1428 73.2259C47.0029 73.2259 46.8637 73.1726 46.7571 73.066L46.0131 72.322C45.8013 72.1095 45.8013 71.7639 46.0138 71.5513H46.0137ZM45.4193 75.3725C46.871 75.3725 48.0527 76.5536 48.0527 78.006C48.0527 79.4583 46.8717 80.6394 45.4193 80.6394C43.9669 80.6394 42.7858 79.4583 42.7858 78.006C42.7858 76.5536 43.9676 75.3725 45.4193 75.3725ZM41.8741 72.6671L42.6182 71.923C42.8313 71.7099 43.1764 71.7099 43.3888 71.923C43.6012 72.1361 43.6019 72.4813 43.3888 72.6937L42.6448 73.4377C42.5383 73.5442 42.399 73.5976 42.2591 73.5976C42.1193 73.5976 41.9801 73.5443 41.8735 73.4377C41.661 73.2251 41.661 72.8795 41.8741 72.6671H41.8741ZM39.5803 74.8882H40.6318C40.9328 74.8882 41.1767 75.1321 41.1767 75.4331C41.1767 75.734 40.9328 75.9779 40.6318 75.9779H39.5803C39.2793 75.9779 39.0354 75.734 39.0354 75.4331C39.0354 75.1321 39.2795 74.8882 39.5803 74.8882ZM45.4193 85.9367C41.1726 85.9367 37.7056 82.5792 37.5081 78.3808C37.5577 78.4164 37.6038 78.4559 37.657 78.4879C38.0317 78.7132 38.4519 78.827 38.8757 78.827C39.3055 78.827 39.7396 78.7101 40.1343 78.4735C40.5598 78.2191 41.0895 78.2191 41.5152 78.4735L41.75 78.6139C42.0414 80.378 43.5729 81.7292 45.4194 81.7292C47.2573 81.7292 48.7847 80.3895 49.0849 78.6363C49.7877 78.9251 50.5918 78.8731 51.2577 78.4747C51.2626 78.4717 51.268 78.4686 51.2728 78.465C51.6972 78.2192 52.2197 78.2211 52.6423 78.4735L53.3003 78.8682C52.8693 82.8371 49.5009 85.9367 45.4192 85.9367L45.4193 85.9367Z" fill="white"/>
<path d="M73.0182 78.5273C73.0182 80.4013 72.6578 81.9681 71.937 83.2276C71.2238 84.4795 70.1881 85.4241 68.83 86.0615C67.4718 86.6912 65.8367 87.0061 63.9247 87.0061H59.213V70.3671H64.4369C66.182 70.3671 67.6956 70.6781 68.9779 71.3003C70.2602 71.9149 71.2541 72.8292 71.9597 74.0431C72.6654 75.2495 73.0182 76.7442 73.0182 78.5273ZM69.3535 78.6183C69.3535 77.3892 69.1714 76.38 68.8072 75.591C68.4506 74.7943 67.9195 74.2063 67.2139 73.8269C66.5158 73.4475 65.6509 73.2578 64.619 73.2578H62.7411V84.0926H64.2548C65.9771 84.0926 67.2556 83.6335 68.0902 82.7155C68.9324 81.7974 69.3535 80.4317 69.3535 78.6183ZM76.9508 87.0061V70.3671H80.4789V87.0061H76.9508ZM94.7341 87.0061H85.1513V70.3671H94.7341V73.2578H88.6794V76.9111H94.313V79.8019H88.6794V84.0926H94.7341V87.0061Z" fill="white"/>
<defs>
<clipPath id="clip0_2_2371">
<rect width="19.579" height="19.579" fill="black" transform="translate(39.0304 38.2256)"/>
</clipPath>
</defs>
</svg>
